<?xml version="1.0" encoding="UTF-8" standalone="no"?>
<svg
   xmlns:dc="http://purl.org/dc/elements/1.1/"
   xmlns:cc="http://creativecommons.org/ns#"
   xmlns:rdf="http://www.w3.org/1999/02/22-rdf-syntax-ns#"
   xmlns:svg="http://www.w3.org/2000/svg"
   xmlns="http://www.w3.org/2000/svg"
   xmlns:sodipodi="http://sodipodi.sourceforge.net/DTD/sodipodi-0.dtd"
   xmlns:inkscape="http://www.inkscape.org/namespaces/inkscape"
   inkscape:version="1.0 (6e3e5246a0, 2020-05-07)"
   sodipodi:docname="pay.svg"
   id="svg14"
   version="1.1"
   height="57"
   width="209">
  <metadata
     id="metadata20">
    <rdf:RDF>
      <cc:Work
         rdf:about="">
        <dc:format>image/svg+xml</dc:format>
        <dc:type
           rdf:resource="http://purl.org/dc/dcmitype/StillImage" />
        <dc:title></dc:title>
      </cc:Work>
    </rdf:RDF>
  </metadata>
  <defs
     id="defs18">
    <style
       id="style22">.cls-1{fill:#fefefe;}.cls-2{fill:#111316;}.cls-3{fill:#868686;}.cls-4{fill:#b1b1b1;}.cls-5{fill:#454545;}.cls-6{fill:#909090;}.cls-7{fill:#7a7a7a;}.cls-8{fill:#9e9e9e;}.cls-9{fill:#555;}.cls-10{fill:#5f5f5f;}.cls-11{fill:#878787;}.cls-12{fill:#5e5e5e;}</style>
  </defs>
  <sodipodi:namedview
     inkscape:current-layer="svg14"
     inkscape:window-maximized="0"
     inkscape:window-y="122"
     inkscape:window-x="172"
     inkscape:cy="36.73211"
     inkscape:cx="70.924683"
     inkscape:zoom="3.007177"
     showgrid="false"
     id="namedview16"
     inkscape:window-height="873"
     inkscape:window-width="1748"
     inkscape:pageshadow="2"
     inkscape:pageopacity="0"
     guidetolerance="10"
     gridtolerance="10"
     objecttolerance="10"
     borderopacity="1"
     bordercolor="#666666"
     pagecolor="#ffffff" />
  <rect
     id="rect2"
     rx="4"
     height="57"
     width="209"
     fill="#0F3B21" />
  <g
     id="g12"
     fill-rule="nonzero">
    <path
       id="path4"
       fill="#FFF"
       d="M32.21 22.294c.795-.134 1.6-.2 2.405-.195 1.239 0 2.146.3 2.723.84.533.48.85 1.215.85 2.115 0 .915-.259 1.635-.749 2.16-.662.735-1.743 1.11-2.967 1.11-.375 0-.721-.015-1.009-.09v4.05H32.21v-9.99zm1.253 4.875c.274.075.62.105 1.037.105 1.513 0 2.435-.765 2.435-2.16 0-1.335-.907-1.979-2.29-1.979-.548 0-.965.045-1.182.105v3.929zm9.851 5.115l-.101-.915h-.043c-.389.57-1.138 1.08-2.132 1.08-1.412 0-2.132-1.035-2.132-2.085 0-1.755 1.498-2.715 4.191-2.7v-.15c0-.6-.158-1.68-1.584-1.68-.648 0-1.325.21-1.815.54l-.288-.87c.576-.39 1.412-.645 2.29-.645 2.132 0 2.65 1.515 2.65 2.97v2.715c0 .63.029 1.245.115 1.74h-1.151zm-.187-3.705c-1.383-.03-2.953.225-2.953 1.635 0 .855.547 1.26 1.195 1.26.907 0 1.483-.6 1.686-1.215.043-.135.072-.285.072-.42v-1.26zm3.897-3.555l1.526 4.29c.159.48.332 1.05.447 1.485h.029c.13-.435.273-.99.446-1.515l1.383-4.26h1.34l-1.901 5.175c-.907 2.49-1.527 3.765-2.391 4.545-.62.57-1.239.795-1.556.855l-.317-1.11a3.32 3.32 0 0 0 1.109-.645c.346-.285.777-.795 1.065-1.47.058-.135.101-.24.101-.315 0-.075-.029-.18-.086-.345l-2.578-6.69h1.383zm11.297 0l.922 3.69c.202.81.389 1.56.519 2.31h.043c.159-.735.389-1.515.62-2.295l1.138-3.705h1.065l1.081 3.63c.259.87.461 1.635.62 2.37h.043c.115-.735.303-1.5.533-2.355l.994-3.645h1.253l-2.247 7.26h-1.152l-1.066-3.465a25 25 0 0 1-.619-2.385h-.029a22.19 22.19 0 0 1-.634 2.4l-1.124 3.45h-1.152l-2.103-7.26h1.295zm11.222-2.04c.014.45-.303.81-.807.81-.447 0-.764-.36-.764-.81 0-.465.331-.825.792-.825.476 0 .779.36.779.825zm-1.412 9.3v-7.26h1.268v7.26h-1.268zm4.329-9.345v2.085h1.815v1.005H72.46v3.915c0 .9.245 1.41.951 1.41.331 0 .576-.045.734-.09l.058.99c-.245.105-.634.18-1.124.18-.59 0-1.066-.195-1.369-.555-.36-.39-.489-1.035-.489-1.89v-3.96H70.14v-1.005h1.081v-1.74l1.239-.345zm3.523-1.305h1.268v4.53h.029c.201-.375.519-.705.907-.93.39-.24.838-.37 1.296-.375.936 0 2.434.6 2.434 3.105v4.32H80.65v-4.17c0-1.17-.417-2.16-1.613-2.16-.821 0-1.469.6-1.699 1.32-.072.18-.087.375-.087.63v4.38h-1.268v-10.65zm47.186.014c.518 0 1.017.051 1.495.153.478.103.898.276 1.261.522.363.246.654.57.873.972.219.402.329.903.329 1.503a3.132 3.132 0 0 1-.596 1.845c-.19.258-.415.477-.674.657-.259.18-.55.306-.873.378v.036c.794.108 1.428.447 1.9 1.017.473.57.708 1.275.708 2.115 0 .204-.017.435-.052.693a3.396 3.396 0 0 1-.657 1.593 2.697 2.697 0 0 1-.786.693c-.328.198-.731.36-1.209.486-.478.126-1.051.189-1.719.189h-4.368V21.648h4.368zm0 5.634c.472 0 .881-.057 1.227-.171.346-.114.634-.27.864-.468a1.92 1.92 0 0 0 .518-.693c.115-.264.173-.546.173-.846 0-1.608-.927-2.412-2.782-2.412h-3.192v4.59h3.192zm0 6.174c.438 0 .852-.039 1.244-.117.37-.07.723-.213 1.037-.423.299-.204.536-.477.708-.819.173-.342.259-.771.259-1.287 0-.828-.279-1.449-.838-1.863-.559-.414-1.362-.621-2.41-.621h-3.192v5.13h3.192zm12.365-11.808v1.044h-3.167V34.5h-1.175V22.692h-3.151v-1.044h7.493zm9.213 2.653a3.504 3.504 0 0 0-.844-.958c-.33-.257-.7-.456-1.097-.589a3.905 3.905 0 0 0-1.258-.202c-.799 0-1.486.158-2.06.475a4.136 4.136 0 0 0-1.41 1.257 5.506 5.506 0 0 0-.811 1.768 7.83 7.83 0 0 0-.262 2.023c0 .68.087 1.351.262 2.013.174.663.444 1.255.811 1.777a4.12 4.12 0 0 0 1.41 1.258c.574.316 1.261.475 2.06.475.563 0 1.069-.105 1.52-.316a3.624 3.624 0 0 0 1.166-.862c.326-.364.591-.789.793-1.275a5.464 5.464 0 0 0 .388-1.574h1.148a7.009 7.009 0 0 1-.523 2.093 5.157 5.157 0 0 1-1.047 1.583 4.408 4.408 0 0 1-1.511 1.002 5.122 5.122 0 0 1-1.933.352c-.946 0-1.776-.179-2.491-.537a5.187 5.187 0 0 1-1.781-1.434 6.196 6.196 0 0 1-1.064-2.076 8.571 8.571 0 0 1-.354-2.479c0-.868.118-1.694.354-2.48a6.274 6.274 0 0 1 1.064-2.084 5.16 5.16 0 0 1 1.781-1.442c.715-.357 1.545-.537 2.491-.537.574 0 1.134.088 1.68.264a4.81 4.81 0 0 1 1.486.783c.444.346.816.771 1.114 1.275a4.42 4.42 0 0 1 .566 1.741h-1.148a4.144 4.144 0 0 0-.5-1.294zm7.957-2.653c.553 0 1.054.081 1.503.243.449.162.835.402 1.158.72.323.318.57.705.743 1.161.173.456.259.972.259 1.548 0 .576-.086 1.943-.259 2.399-.173.456-.42.843-.743 1.161a3.135 3.135 0 0 1-1.158.72c-.45.162-.95.243-1.503.243h-2.884V34.5h-1.175V21.648h4.059zm-.259 7.151c.818 0 1.48-.216 1.987-.648.507-.432.761-1.943.761-2.831 0-.888-.254-1.548-.761-1.98-.507-.432-1.169-.648-1.987-.648h-2.625v6.107h2.625zm9.917-7.151l4.839 12.852h-1.261l-1.504-3.996h-5.616l-1.486 3.996h-1.244l4.959-12.852h1.313zm1.676 7.812l-2.383-6.588-2.473 6.588h4.856zm1.36-7.812h1.382l4.059 6.516 4.043-6.516h1.399l-4.872 7.56V34.5h-1.176v-5.292l-4.835-7.56z" />
    <path
       id="path6"
       fill="#CDD932"
       d="M96.329 23.548v-8.32l10.112 4.812-7.447 5.435 3.511 2.537 8.67-6.263c.887-.685 1.469-1.238 1.42-2.137-.069-1.287-.922-1.772-1.695-2.081l-15.396-7.293s-1.7-.78-2.801.482c-.384.44-.453 1.765-.453 1.765v31.58h.029c-.036-1.295 1.166-1.901 1.166-1.901l2.884-1.372V23.548z" />
    <path
       id="path8"
       d="M102.505 28.01l-6.176-4.462v8.928z"
       fill="#1D7A44" />
    <path
       id="path10"
       fill="#51B13E"
       d="M111.176 34.272l-8.67-6.262-3.511 2.536 7.447 5.434-10.112 4.813-2.884 1.372s-1.202.604-1.166 1.901c.009.324.093.689.294 1.101.745 1.521 2.93.615 2.93.615l15.398-7.292c.772-.309 1.625-.793 1.694-2.081.049-.899-.534-1.452-1.42-2.137z" />
  </g>
  <g
     transform="matrix(0.11615356,0,0,0.11615356,176.34877,12.005388)"
     id="g79">
    <path
       class="cls-1"
       d="m 174.18,1.15 c -12.79,15.54 -25.44,31.17 -35,49 a 0.81,0.81 0 0 0 -0.13,1.16 c 0.37,0.29 0.62,-0.11 0.91,-0.34 14.89,-18.65 34.39,-30.35 56.88,-37.71 -28.4,26.49 -53.79,55.45 -75.04,88.74 l 13.66,2.14 c -3.72,20.24 6.33,32.87 22.43,42.15 13.7,7.89 27.63,15.55 38.79,27 26.69,27.29 36.54,59.88 26.11,96.68 -10.43,36.8 -36.24,59.03 -73.34,67.03 -29.9,6.44 -60.06,6.49 -88.73,-5.95 C 31.47,318.33 11,297 4.13,265.19 -4,227.54 6.39,195.42 35.89,170.07 c 12.79,-11 27,-20.09 41.32,-28.79 15.76,-9.57 16.88,-22.58 13.4,-36.47 C 89,98.35 86.13,92.39 83.17,86.64 c 0.6,-1.64 1.94,-2 3,-2.93 l 18.37,12.14 C 108.18,69.64 117.17,46.14 130.1,24 l -7.71,30.83 c 4.68,-6.78 9,-13.78 14.15,-20.21 a 172,172 0 0 1 17,-18.29 193.73,193.73 0 0 1 19.57,-16.24 c 1.01,-0.29 1.29,0.14 1.07,1.06 z"
       id="path28" />
    <path
       class="cls-2"
       d="m 105.39,142.67 c -0.54,2.26 -0.13,4.81 -2,6.65 -1.33,4.1 -2.7,8.19 -4,12.3 -2.94,9.35 -8.78,16 -17.44,20.79 a 159.8,159.8 0 0 0 -26.84,19 c -12.21,10.49 -20.24,23.62 -24.85,39 -2.89,9.63 -0.69,18.88 2.31,27.89 6.38,19.22 17,36 30.72,50.82 3.3,3.57 7.49,6 12.45,9.21 a 56.79,56.79 0 0 1 -15.69,-6 c -26.8,-14.88 -45.19,-36.45 -49.11,-67.45 -3.61,-28.6 3.69,-54.2 26.61,-73.69 10.91,-9.27 21.8,-18.54 34.25,-25.77 a 86.33,86.33 0 0 0 17.76,-13.65 c 10.31,-10.3 11.58,-22.34 7.13,-35.46 -1.58,-4.66 -3.8,-9.1 -6.16,-14.64 l 19.65,8.58 c 1.5,2 1.45,4.36 1.45,6.7 q 0,65.25 0,130.49 c 0,3.35 0.14,6.77 -3.22,8.92 -1.79,3.64 -4.57,6.52 -7.27,9.44 -11,11.89 -13.48,26.43 -10.71,41.39 2.42,13.05 7.1,25.75 19.42,33.65 -12.07,-2.3 -23.29,-6 -31.89,-15.45 -9,-9.84 -15.93,-20.73 -20,-33.49 a 35.89,35.89 0 0 1 2.74,-29.35 67.11,67.11 0 0 1 25.28,-26.26 c 8.75,-5.15 15.45,-12 18.34,-22 0.32,-2 0.84,-4 1.31,-6 -0.1,-0.69 -1,0 -0.33,-0.12 0.29,-0.05 0.41,0.07 0.33,0.35 -0.48,1.72 -0.7,3.56 -2.17,4.83 -4,10 -10.86,17.15 -20.4,22.28 -14,7.5 -25.18,18.15 -28.63,34.09 -4.9,22.61 2.2,42 19.08,57.72 6.08,5.67 13.15,9.93 20.62,13.62 -8.59,-1.5 -17.33,-3.21 -23.57,-9.53 -17,-17.27 -30.29,-36.88 -36.6,-60.76 C 31.33,251 32.67,242 36.44,233 A 78,78 0 0 1 62.3,200 c 7.61,-5.64 15.25,-11.32 23.32,-16.25 8.86,-5.42 13.72,-13.26 16.29,-22.9 0.94,-3.52 1.6,-7.12 2.39,-10.69 0.38,-2.54 0.46,-5.14 1.22,-6.84"
       id="path30" />
    <path
       class="cls-2"
       d="m 115.56,151.29 c 0,5.4 1.52,10.67 1.43,16.08 0.34,5.26 2.4,9.88 4.89,14.45 7.68,14.11 14.61,28.47 18.4,44.31 5.06,21.13 2.58,41.88 -1.53,62.66 -1.29,6.49 -2.28,13.07 -4.72,19.28 -1.91,0 -1.21,-1.16 -1,-2.12 a 211.41,211.41 0 0 0 4.22,-30.08 c 1,-19 -4.07,-36.53 -13.21,-52.88 -4.44,-8 -8.47,-15.77 -8.49,-25.11 -1.24,8.49 -0.75,16.8 4.4,24 6.83,9.59 10.07,20.46 12.23,31.77 2.86,15 0.79,29.79 -1.72,44.59 -1.84,10.82 -5.17,20.95 -13.32,28.85 -0.88,0.19 -1.35,0 -1,-1 4,-5.93 5.09,-12.71 6.18,-19.64 3.21,-20.33 0.45,-39.93 -6.28,-59.15 -1.41,-1.95 -1.74,-4.33 -2.56,-6.53 a 20.81,20.81 0 0 1 1.51,8.57 c 2.8,13.37 5,26.75 4.32,40.54 -0.54,11.72 -2.26,23.12 -6.2,34.17 -3.21,-1.21 -2.25,-4.06 -2.26,-6.31 -0.1,-21 -0.31,-42 0,-62.94 0.72,-49.27 0.15,-98.55 0.39,-147.82 0,-2 -0.49,-4 1,-5.73 a 16.56,16.56 0 0 1 6.28,2.7 c 0.81,5.24 -0.18,10.37 -0.34,15.5 -0.38,11.8 1.83,22.91 8.79,32.6 23.31,32.48 25.59,69.38 22.73,107.35 a 270.61,270.61 0 0 1 -5.5,36.45 43.13,43.13 0 0 1 -7,16.32 0.78,0.78 0 0 1 -1.28,0 c 6,-19.91 11.48,-39.82 10.66,-61 -0.77,-20.13 -5.41,-38.94 -14.9,-56.75 -4.51,-8.45 -10.14,-16.38 -12.92,-25.71 -0.33,-1.11 -0.52,-2.26 -0.77,-3.4 -2.34,-4.74 -1.76,-10 -2.63,-15 -0.92,-4.13 -0.55,-8.37 -0.89,-12.55"
       id="path32" />
    <path
       class="cls-2"
       d="m 109.16,325.19 c -15,-15.28 -24.62,-43.24 -7.89,-65.34 3.17,-4.18 6.84,-8.2 7.79,-13.7 2.54,0.21 2.07,2.24 2.07,3.74 q 0.11,35.73 0,71.46 c 0,1.5 0.51,3.51 -1.97,3.84 z"
       id="path34" />
    <path
       class="cls-3"
       d="m 109.16,325.19 c 1.44,-0.63 1,-1.94 1,-3 q 0,-36.53 0,-73.06 c 0,-1.07 0.42,-2.41 -1.1,-3 l -0.33,0.17 h -0.36 a 24.68,24.68 0 0 0 1.86,-10.15 q -0.12,-68 -0.08,-136 l 2.1,1 q 0,109.61 0,219.21 c 0,1.21 -0.67,2.7 0.86,3.59 -0.69,2.67 -2.11,2.75 -3.95,1.24 z"
       id="path36" />
    <path
       class="cls-4"
       d="m 117,167.37 c -1.63,-5.25 -1.87,-10.68 -2,-16.12 -0.29,-1 0.11,-1.27 1,-1 l 1.92,15 z"
       id="path38" />
    <path
       class="cls-5"
       d="m 133,306 c 0.39,0.68 0,1.73 1,2.12 -1.4,4 -2.43,8.17 -5.91,11 l 0.09,0.08 q 2.43,-6.64 4.82,-13.2 z"
       id="path40" />
    <path
       class="cls-6"
       d="m 115,249.33 c -1.36,-3 -1.61,-6.19 -1.77,-10.22 a 20,20 0 0 1 2.82,8.18 z"
       id="path42" />
    <path
       class="cls-7"
       d="m 103.36,149.32 c 0.16,-2.64 1.35,-4.95 2.66,-8.31 -0.2,3.83 -0.25,6.64 -1.72,9.21 z"
       id="path44" />
    <path
       class="cls-8"
       d="m 103.41,203.3 2.5,-7.07 a 10.65,10.65 0 0 1 -1.64,8 z"
       id="path46" />
    <path
       class="cls-9"
       d="m 135.91,312.14 h 1.28 a 7.25,7.25 0 0 1 -2.71,3.84 4.33,4.33 0 0 1 1.43,-3.84 z"
       id="path48" />
    <path
       class="cls-10"
       d="m 116.11,326.08 1,1 a 3.76,3.76 0 0 1 -3,2.28 c -0.21,-1.7 0.95,-2.46 2,-3.28 z"
       id="path50" />
    <path
       class="cls-11"
       d="m 127.18,321.13 c 0.35,1.34 -0.49,2.07 -1.67,2.95 0,-1.49 0.12,-2.6 1.7,-2.92 z"
       id="path52" />
    <path
       class="cls-5"
       d="m 127.21,321.16 c 0,-0.84 -0.12,-1.71 1,-2 l -0.09,-0.08 c 0.29,1 0.23,1.76 -0.94,2 z"
       id="path54" />
    <path
       class="cls-12"
       d="m 116.06,150.27 -1,1 c -1.91,-4.67 -0.52,-9.42 -0.2,-14.16 q 0.58,6.56 1.2,13.16 z"
       id="path56" />
  </g>
</svg>
